<svg xmlns="http://www.w3.org/2000/svg" viewBox="0 0 42.91 42.91"><defs><style>.cls-1{fill:none;}</style></defs><g id="Layer_2" data-name="Layer 2"><g id="export"><circle cx="12.18" cy="25.12" r="2.97"/><path d="M30.74,24.15a1,1,0,1,1,0,1.94,1,1,0,0,1,0-1.94m0-2a3,3,0,1,0,3,3,3,3,0,0,0-3-3Z"/><path d="M30.74,20.37A1,1,0,0,1,30,20a9.73,9.73,0,0,0-1.74-1.37A1,1,0,1,1,29.33,17a12.11,12.11,0,0,1,2.15,1.71,1,1,0,0,1-.74,1.68Z"/><path d="M25.21,17.22a.84.84,0,0,1-.27,0,13.64,13.64,0,0,0-1.82-.37,1,1,0,0,1,.26-2,13.72,13.72,0,0,1,2.1.43,1,1,0,0,1-.27,2Z"/><path d="M17.7,17.22a1,1,0,0,1-.27-2,13.85,13.85,0,0,1,2.11-.43,1,1,0,1,1,.25,2,14.32,14.32,0,0,0-1.82.37A.84.84,0,0,1,17.7,17.22Z"/><path d="M12.18,20.37a1,1,0,0,1-.68-.27,1,1,0,0,1-.06-1.41A11.36,11.36,0,0,1,13.58,17a1,1,0,1,1,1.07,1.69A10.22,10.22,0,0,0,12.91,20,1,1,0,0,1,12.18,20.37Z"/><rect class="cls-1" width="42.91" height="42.91"/></g></g></svg>