<svg xmlns="http://www.w3.org/2000/svg" viewBox="0 0 42.91 42.91"><defs><style>.cls-1{fill:none;}</style></defs><g id="Layer_2" data-name="Layer 2"><g id="export"><rect class="cls-1" width="42.91" height="42.91"/><path d="M28.92,20.77V16s0,0,0,0a1.11,1.11,0,1,0-2.22,0v4.38h-1V14s0,0,0,0a1.11,1.11,0,1,0-2.22,0v6.36h-1V13.4s0,0,0,0a1.11,1.11,0,1,0-2.22,0v7h-1V15.08a1.11,1.11,0,1,0-2.22,0V25.3h0v.94c-2.06-2.95-2.67-2.91-2.88-2.89a.62.62,0,0,0-.55.38c-.64,1.33,1,3.83,2.84,6.5l.25.35a1.55,1.55,0,0,0,1.4.6h8.81a2,2,0,0,0,2-2V20.81S28.92,20.78,28.92,20.77Z"/></g></g></svg>