<svg xmlns="http://www.w3.org/2000/svg" viewBox="0 0 42.91 42.91"><defs><style>.cls-1{fill:none;}</style></defs><g id="Layer_2" data-name="Layer 2"><g id="export"><rect class="cls-1" width="42.91" height="42.91"/><path d="M31.93,22.12c-.15.25-3.54,6.12-10.47,6.12S11.13,22.37,11,22.12a1,1,0,0,1,0-1c.14-.25,3.53-6.13,10.47-6.13s10.32,5.88,10.47,6.13A1,1,0,0,1,31.93,22.12Zm-5.75-.49a4.73,4.73,0,1,0-4.72,4.72A4.73,4.73,0,0,0,26.18,21.63Zm-2,0a2.73,2.73,0,1,1-2.72-2.73A2.72,2.72,0,0,1,24.18,21.63Z"/></g></g></svg>