<svg xmlns="http://www.w3.org/2000/svg" viewBox="0 0 42.91 42.91"><defs><style>.cls-1{fill:none;}</style></defs><g id="Layer_2" data-name="Layer 2"><g id="export"><rect class="cls-1" width="42.91" height="42.91"/><path d="M32.75,11.83H10.17a1,1,0,0,0-1,1V30.08a1,1,0,0,0,1,1H32.75a1,1,0,0,0,1-1V12.83A1,1,0,0,0,32.75,11.83Zm-7,17.25,6-7v2.57L28,29.08Zm-4.85,0L31.75,16.49v2.56l-8.63,10Zm-4.84,0L29.19,13.83h2.2L18.28,29.08Zm-4.84,0L24.35,13.83h2.2L13.43,29.08Zm5.63-15.25-5.69,6.63V17.9l3.49-4.07Zm-5.69,9.7,8.33-9.7h2.21L11.17,26.09Zm.85-9.7-.85,1v-1ZM30.6,29.08l1.15-1.34v1.34Z"/></g></g></svg>