<svg xmlns="http://www.w3.org/2000/svg" viewBox="0 0 50 50"><defs><style>.cls-1{fill:none;}</style></defs><g id="Layer_2" data-name="Layer 2"><g id="export"><rect class="cls-1" width="50" height="50"/><circle cx="15.72" cy="28.03" r="2.97"/><path d="M34.28,27.06a1,1,0,1,1-1,1,1,1,0,0,1,1-1m0-2a3,3,0,1,0,3,3,3,3,0,0,0-3-3Z"/><path d="M28.75,20.13a.84.84,0,0,1-.27,0,13.82,13.82,0,0,0-1.81-.37,1,1,0,1,1,.25-2,13.48,13.48,0,0,1,2.1.43,1,1,0,0,1,.7,1.23A1,1,0,0,1,28.75,20.13Z"/><path d="M21.25,20.13a1,1,0,0,1-1-.73,1,1,0,0,1,.7-1.23,13.48,13.48,0,0,1,2.1-.43,1,1,0,1,1,.25,2,12.36,12.36,0,0,0-1.81.37A.84.84,0,0,1,21.25,20.13Z"/><path d="M15.72,23.27a1,1,0,0,1-.67-.26A1,1,0,0,1,15,21.6a11.36,11.36,0,0,1,2.14-1.71,1,1,0,0,1,1.38.3,1,1,0,0,1-.3,1.39A9.28,9.28,0,0,0,16.46,23,1,1,0,0,1,15.72,23.27Z"/><path d="M34,19.11a.24.24,0,0,0-.28,0l-2.64,2.39a.27.27,0,0,0-.07.27.25.25,0,0,0,.21.17l2.5.27h0a.28.28,0,0,0,.16-.06A.31.31,0,0,0,34,22l.14-2.67A.25.25,0,0,0,34,19.11Z"/></g></g></svg>