<svg xmlns="http://www.w3.org/2000/svg" viewBox="0 0 42.91 42.91"><defs><style>.cls-1{fill:none;}</style></defs><g id="Layer_2" data-name="Layer 2"><g id="export"><circle cx="12.18" cy="21.46" r="2.97"/><path d="M30.74,20.49a1,1,0,1,1-1,1,1,1,0,0,1,1-1m0-2a3,3,0,1,0,3,3,3,3,0,0,0-3-3Z"/><path d="M30.74,16.7a1,1,0,0,1-.74-.32A9.47,9.47,0,0,0,28.26,15,1,1,0,0,1,28,13.62a1,1,0,0,1,1.38-.31A11.87,11.87,0,0,1,31.48,15a1,1,0,0,1-.07,1.41A1,1,0,0,1,30.74,16.7Z"/><path d="M25.21,13.56a1.26,1.26,0,0,1-.27,0,12.23,12.23,0,0,0-1.82-.37A1,1,0,0,1,22.26,12a1,1,0,0,1,1.12-.86,15,15,0,0,1,2.1.42,1,1,0,0,1,.69,1.24A1,1,0,0,1,25.21,13.56Z"/><path d="M17.7,13.56a1,1,0,0,1-.27-2,15.15,15.15,0,0,1,2.11-.42,1,1,0,1,1,.25,2,12.77,12.77,0,0,0-1.82.37A1.26,1.26,0,0,1,17.7,13.56Z"/><path d="M12.18,16.7a1,1,0,0,1-.68-.26A1,1,0,0,1,11.44,15a11.15,11.15,0,0,1,2.14-1.72,1,1,0,0,1,1.38.31A1,1,0,0,1,14.65,15a9.94,9.94,0,0,0-1.74,1.38A1,1,0,0,1,12.18,16.7Z"/><rect class="cls-1" width="42.91" height="42.91"/></g></g></svg>