<svg xmlns="http://www.w3.org/2000/svg" viewBox="0 0 42.91 42.91"><defs><style>.cls-1{fill:none;}</style></defs><g id="Layer_2" data-name="Layer 2"><g id="export"><rect class="cls-1" width="42.91" height="42.91"/><path d="M27.89,31.63H18.46a2.73,2.73,0,0,1-2.3-1l-.26-.34-.85-1.08c-2.16-2.74-4-5.1-2.78-6.7a2.33,2.33,0,0,1,1.86-1h0a3.44,3.44,0,0,1,2.17,1V15.35a2.52,2.52,0,0,1,2.59-2.43,2.74,2.74,0,0,1,.7.09,2.57,2.57,0,0,1,2.47-1.73,2.68,2.68,0,0,1,2,.86,2.68,2.68,0,0,1,1.2-.28,2.56,2.56,0,0,1,2.53,1.91,3,3,0,0,1,.68-.08A2.52,2.52,0,0,1,31,16.12V28.66A3.07,3.07,0,0,1,27.89,31.63Zm-13.76-8.1c-.09,0-.22.17-.28.24-.1.6,1.77,3,2.77,4.22l.87,1.11.26.34c.06.09.29.19.71.19h9.43a1.08,1.08,0,0,0,1.15-1V16.12c0-.23-.27-.43-.59-.43s-.59.2-.59.43v5a1,1,0,0,1-1,1,1,1,0,0,1-1-1V14.29c0-.23-.27-.43-.59-.43s-.58.2-.58.43v6.82a1,1,0,0,1-2,0V13.72c0-.24-.27-.44-.59-.44s-.59.2-.59.44v7.39a1,1,0,0,1-2,0V15.35c0-.23-.26-.43-.58-.43s-.59.2-.59.43V24.8a.57.57,0,0,1,0,.13v.2a1,1,0,0,1-1.79.61c-1.62-2.1-2.28-2.2-2.4-2.21Z"/></g></g></svg>