<svg xmlns="http://www.w3.org/2000/svg" viewBox="0 0 42.91 42.91"><defs><style>.cls-1{fill:none;}</style></defs><g id="Layer_2" data-name="Layer 2"><g id="export"><rect class="cls-1" width="42.91" height="42.91"/><path d="M11,23.81a1,1,0,0,1-1-1V20.1a1,1,0,0,1,2,0v2.71A1,1,0,0,1,11,23.81Z"/><path d="M16.25,23.81a1,1,0,0,1-1-1V20.1a1,1,0,0,1,2,0v2.71A1,1,0,0,1,16.25,23.81Z"/><path d="M26.67,23.81a1,1,0,0,1-1-1V20.1a1,1,0,0,1,2,0v2.71A1,1,0,0,1,26.67,23.81Z"/><path d="M21.46,23.81a1,1,0,0,1-1-1V20.1a1,1,0,0,1,2,0v2.71A1,1,0,0,1,21.46,23.81Z"/><path d="M31.88,23.81a1,1,0,0,1-1-1V20.1a1,1,0,0,1,2,0v2.71A1,1,0,0,1,31.88,23.81Z"/></g></g></svg>