<svg xmlns="http://www.w3.org/2000/svg" viewBox="0 0 42.91 42.91"><defs><style>.cls-1{fill:none;}</style></defs><g id="Layer_2" data-name="Layer 2"><g id="export"><rect class="cls-1" width="42.91" height="42.91"/><path d="M31.91,21.11a12.69,12.69,0,0,0-10.45-5.73A12.7,12.7,0,0,0,11,21.11a1,1,0,0,0,0,1,12.67,12.67,0,0,0,10.46,5.73,12.67,12.67,0,0,0,10.45-5.73A1,1,0,0,0,31.91,21.11ZM21.46,25a3.36,3.36,0,1,1,3.36-3.36A3.36,3.36,0,0,1,21.46,25Zm-8.39-3.36a11.22,11.22,0,0,1,4.26-3.38,5.25,5.25,0,0,0,0,6.75A11.31,11.31,0,0,1,13.07,21.63ZM25.6,25a5.29,5.29,0,0,0,1.22-3.35,5.36,5.36,0,0,0-1.23-3.38,11.29,11.29,0,0,1,4.24,3.37A11.23,11.23,0,0,1,25.6,25Z"/></g></g></svg>